<svg xmlns="http://www.w3.org/2000/svg" width="920" height="380" viewBox="0 0 920 380" font-family="ui-monospace, SFMono-Regular, Menlo, monospace">
  <rect width="920" height="380" fill="#0b0f14" rx="10"/>
  <text x="64" y="22" fill="#e6edf3" font-size="14">HeadsUp Pacer — simulated run @ 8:00/mi ± 10s (dashed = target, shaded = band)</text>
  <line x1="64" y1="36.0" x2="896" y2="36.0" stroke="#1c2530" stroke-width="1"/><text x="54" y="40.0" fill="#7d8590" font-size="12" text-anchor="end">7:00</text><line x1="64" y1="85.3" x2="896" y2="85.3" stroke="#1c2530" stroke-width="1"/><text x="54" y="89.3" fill="#7d8590" font-size="12" text-anchor="end">7:30</text><line x1="64" y1="134.7" x2="896" y2="134.7" stroke="#1c2530" stroke-width="1"/><text x="54" y="138.7" fill="#7d8590" font-size="12" text-anchor="end">8:00</text><line x1="64" y1="184.0" x2="896" y2="184.0" stroke="#1c2530" stroke-width="1"/><text x="54" y="188.0" fill="#7d8590" font-size="12" text-anchor="end">8:30</text><line x1="64" y1="233.3" x2="896" y2="233.3" stroke="#1c2530" stroke-width="1"/><text x="54" y="237.3" fill="#7d8590" font-size="12" text-anchor="end">9:00</text><line x1="64" y1="282.7" x2="896" y2="282.7" stroke="#1c2530" stroke-width="1"/><text x="54" y="286.7" fill="#7d8590" font-size="12" text-anchor="end">9:30</text><line x1="64" y1="332.0" x2="896" y2="332.0" stroke="#1c2530" stroke-width="1"/><text x="54" y="336.0" fill="#7d8590" font-size="12" text-anchor="end">10:00</text>
  <line x1="64.0" y1="36" x2="64.0" y2="332" stroke="#1c2530" stroke-width="1"/><text x="64.0" y="350" fill="#7d8590" font-size="12" text-anchor="middle">0:00</text><line x1="156.4" y1="36" x2="156.4" y2="332" stroke="#1c2530" stroke-width="1"/><text x="156.4" y="350" fill="#7d8590" font-size="12" text-anchor="middle">1:00</text><line x1="248.9" y1="36" x2="248.9" y2="332" stroke="#1c2530" stroke-width="1"/><text x="248.9" y="350" fill="#7d8590" font-size="12" text-anchor="middle">2:00</text><line x1="341.3" y1="36" x2="341.3" y2="332" stroke="#1c2530" stroke-width="1"/><text x="341.3" y="350" fill="#7d8590" font-size="12" text-anchor="middle">3:00</text><line x1="433.8" y1="36" x2="433.8" y2="332" stroke="#1c2530" stroke-width="1"/><text x="433.8" y="350" fill="#7d8590" font-size="12" text-anchor="middle">4:00</text><line x1="526.2" y1="36" x2="526.2" y2="332" stroke="#1c2530" stroke-width="1"/><text x="526.2" y="350" fill="#7d8590" font-size="12" text-anchor="middle">5:00</text><line x1="618.7" y1="36" x2="618.7" y2="332" stroke="#1c2530" stroke-width="1"/><text x="618.7" y="350" fill="#7d8590" font-size="12" text-anchor="middle">6:00</text><line x1="711.1" y1="36" x2="711.1" y2="332" stroke="#1c2530" stroke-width="1"/><text x="711.1" y="350" fill="#7d8590" font-size="12" text-anchor="middle">7:00</text><line x1="803.6" y1="36" x2="803.6" y2="332" stroke="#1c2530" stroke-width="1"/><text x="803.6" y="350" fill="#7d8590" font-size="12" text-anchor="middle">8:00</text><line x1="896.0" y1="36" x2="896.0" y2="332" stroke="#1c2530" stroke-width="1"/><text x="896.0" y="350" fill="#7d8590" font-size="12" text-anchor="middle">9:00</text>
  <rect x="64" y="118.2" width="832" height="32.9" fill="#3fb950" opacity="0.12"/>
  <line x1="64" y1="134.7" x2="896" y2="134.7" stroke="#3fb950" stroke-width="1.5" stroke-dasharray="5 4" opacity="0.6"/>
  <line x1="285.9" y1="36" x2="285.9" y2="332" stroke="#f0a500" stroke-width="1" opacity="0.35"/><circle cx="285.9" cy="44" r="4.5" fill="#f0a500"/><text x="285.9" y="30" fill="#f0a500" font-size="11" text-anchor="middle">hot</text><line x1="384.5" y1="36" x2="384.5" y2="332" stroke="#3fb950" stroke-width="1" opacity="0.35"/><circle cx="384.5" cy="44" r="4.5" fill="#3fb950"/><text x="384.5" y="30" fill="#3fb950" font-size="11" text-anchor="middle">in band</text><line x1="554.0" y1="36" x2="554.0" y2="332" stroke="#58a6ff" stroke-width="1" opacity="0.35"/><circle cx="554.0" cy="44" r="4.5" fill="#58a6ff"/><text x="554.0" y="30" fill="#58a6ff" font-size="11" text-anchor="middle">slow</text><line x1="717.3" y1="36" x2="717.3" y2="332" stroke="#3fb950" stroke-width="1" opacity="0.35"/><circle cx="717.3" cy="44" r="4.5" fill="#3fb950"/><text x="717.3" y="30" fill="#3fb950" font-size="11" text-anchor="middle">in band</text><line x1="802.0" y1="36" x2="802.0" y2="332" stroke="#d2a8ff" stroke-width="1" opacity="0.35"/><circle cx="802.0" cy="44" r="4.5" fill="#d2a8ff"/><text x="802.0" y="30" fill="#d2a8ff" font-size="11" text-anchor="middle">mile</text>
  <path d="M68.6 133.5 L70.2 134.5 L71.7 134.3 L73.2 134.5 L74.8 134.6 L76.3 134.5 L77.9 134.6 L79.4 134.5 L80.9 134.7 L82.5 134.6 L84.0 134.7 L85.6 134.6 L87.1 134.7 L88.7 134.6 L90.2 134.7 L91.7 134.6 L93.3 134.6 L94.8 134.7 L96.4 134.6 L97.9 134.7 L99.4 134.6 L101.0 134.7 L102.5 134.6 L104.1 134.7 L105.6 134.7 L107.1 134.7 L108.7 134.7 L110.2 134.7 L111.8 134.7 L113.3 134.6 L114.8 134.7 L116.4 134.6 L117.9 134.7 L119.5 134.6 L121.0 134.7 L122.5 134.6 L124.1 134.6 L125.6 134.6 L127.2 134.6 L128.7 134.7 L130.3 134.6 L131.8 134.7 L133.3 134.6 L134.9 134.7 L136.4 134.6 L138.0 134.7 L139.5 134.6 L141.0 134.7 L142.6 134.6 L144.1 134.6 L145.7 134.6 L147.2 134.6 L148.7 134.7 L150.3 134.6 L151.8 134.7 L153.4 134.6 L154.9 134.7 L156.4 134.6 L158.0 134.7 L159.5 134.6 L161.1 134.7 L162.6 134.6 L164.1 134.6 L165.7 134.7 L167.2 134.6 L168.8 134.7 L170.3 134.6 L171.9 134.7 L173.4 134.6 L174.9 134.7 L176.5 134.6 L178.0 134.7 L179.6 134.6 L181.1 134.6 L182.6 134.6 L184.2 134.6 L185.7 134.7 L187.3 134.6 L188.8 134.7 L190.3 134.6 L191.9 134.7 L193.4 134.6 L195.0 134.7 L196.5 134.6 L198.0 134.7 L199.6 134.6 L201.1 134.6 L202.7 134.7 L204.2 134.6 L205.7 134.7 L207.3 134.6 L208.8 134.7 L210.4 134.6 L211.9 134.7 L213.5 134.6 L215.0 134.7 L216.5 134.6 L218.1 134.6 L219.6 134.6 L221.2 134.6 L222.7 134.7 L224.2 134.6 L225.8 134.7 L227.3 134.6 L228.9 134.7 L230.4 134.6 L231.9 134.7 L233.5 134.6 L235.0 134.7 L236.6 134.6 L238.1 134.6 L239.6 134.7 L241.2 134.6 L242.7 134.7 L244.3 134.6 L245.8 134.7 L247.3 134.6 L248.9 133.0 L250.4 131.2 L252.0 129.6 L253.5 127.9 L255.1 126.3 L256.6 124.6 L258.1 122.9 L259.7 121.3 L261.2 119.6 L262.8 118.0 L264.3 116.4 L265.8 114.8 L267.4 113.2 L268.9 111.6 L270.5 110.0 L272.0 108.4 L273.5 106.8 L275.1 105.2 L276.6 103.7 L278.2 102.1 L279.7 100.6 L281.2 99.0 L282.8 97.5 L284.3 95.9 L285.9 94.4 L287.4 92.8 L288.9 91.3 L290.5 89.8 L292.0 88.3 L293.6 86.8 L295.1 85.3 L296.7 85.3 L298.2 85.3 L299.7 85.3 L301.3 85.3 L302.8 85.3 L304.4 85.3 L305.9 85.3 L307.4 85.3 L309.0 85.3 L310.5 85.3 L312.1 85.3 L313.6 85.3 L315.1 85.3 L316.7 85.3 L318.2 85.3 L319.8 85.3 L321.3 85.3 L322.8 85.3 L324.4 85.3 L325.9 85.3 L327.5 85.3 L329.0 85.3 L330.5 85.3 L332.1 85.3 L333.6 85.3 L335.2 85.3 L336.7 85.3 L338.3 85.3 L339.8 85.3 L341.3 87.0 L342.9 88.8 L344.4 90.5 L346.0 92.3 L347.5 94.0 L349.0 95.8 L350.6 97.6 L352.1 99.3 L353.7 101.2 L355.2 102.9 L356.7 104.8 L358.3 106.6 L359.8 108.4 L361.4 110.2 L362.9 112.1 L364.4 113.9 L366.0 115.8 L367.5 117.7 L369.1 119.6 L370.6 121.5 L372.1 123.3 L373.7 125.3 L375.2 127.2 L376.8 129.1 L378.3 131.0 L379.9 133.0 L381.4 134.9 L382.9 136.9 L384.5 138.9 L386.0 140.9 L387.6 142.9 L389.1 142.9 L390.6 142.9 L392.2 142.8 L393.7 142.9 L395.3 142.8 L396.8 142.9 L398.3 142.8 L399.9 142.9 L401.4 142.8 L403.0 142.9 L404.5 142.9 L406.0 142.9 L407.6 142.9 L409.1 142.9 L410.7 142.9 L412.2 142.8 L413.7 142.9 L415.3 142.8 L416.8 142.9 L418.4 142.8 L419.9 142.9 L421.5 142.9 L423.0 142.9 L424.5 142.9 L426.1 142.9 L427.6 142.9 L429.2 142.8 L430.7 142.9 L432.2 142.8 L433.8 142.9 L435.3 142.8 L436.9 142.9 L438.4 142.8 L439.9 142.9 L441.5 142.9 L443.0 142.9 L444.6 142.9 L446.1 142.9 L447.6 142.9 L449.2 142.8 L450.7 142.9 L452.3 142.8 L453.8 142.9 L455.3 142.8 L456.9 142.9 L458.4 142.8 L460.0 142.9 L461.5 142.9 L463.1 142.9 L464.6 142.9 L466.1 142.9 L467.7 142.9 L469.2 142.8 L470.8 142.9 L472.3 142.8 L473.8 142.9 L475.4 142.8 L476.9 142.9 L478.5 142.9 L480.0 142.9 L481.5 142.9 L483.1 142.9 L484.6 142.9 L486.2 142.8 L487.7 142.9 L489.2 142.8 L490.8 142.9 L492.3 142.8 L493.9 142.9 L495.4 142.8 L496.9 142.9 L498.5 142.9 L500.0 142.9 L501.6 142.9 L503.1 142.9 L504.7 142.9 L506.2 142.8 L507.7 142.9 L509.3 142.8 L510.8 142.9 L512.4 142.8 L513.9 142.9 L515.4 142.9 L517.0 142.9 L518.5 142.9 L520.1 142.9 L521.6 142.9 L523.1 142.8 L524.7 142.9 L526.2 145.5 L527.8 148.2 L529.3 150.8 L530.8 153.5 L532.4 156.2 L533.9 158.9 L535.5 161.6 L537.0 164.4 L538.5 167.2 L540.1 169.9 L541.6 172.8 L543.2 175.6 L544.7 178.5 L546.3 181.3 L547.8 184.2 L549.3 187.1 L550.9 190.1 L552.4 193.0 L554.0 196.0 L555.5 199.0 L557.0 202.0 L558.6 205.0 L560.1 208.0 L561.7 211.2 L563.2 214.2 L564.7 217.4 L566.3 220.5 L567.8 223.7 L569.4 226.8 L570.9 230.1 L572.4 233.3 L574.0 233.3 L575.5 233.3 L577.1 233.3 L578.6 233.3 L580.1 233.3 L581.7 233.3 L583.2 233.3 L584.8 233.3 L586.3 233.3 L587.9 233.3 L589.4 233.3 L590.9 233.3 L592.5 233.3 L594.0 233.3 L595.6 233.3 L597.1 233.3 L598.6 233.3 L600.2 233.3 L601.7 233.3 L603.3 233.3 L604.8 233.3 L606.3 233.3 L607.9 233.3 L609.4 233.3 L611.0 233.3 L612.5 233.3 L614.0 233.3 L615.6 233.3 L617.1 233.3 L618.7 233.3 L620.2 233.3 L621.7 233.3 L623.3 233.3 L624.8 233.3 L626.4 233.3 L627.9 233.3 L629.5 233.3 L631.0 233.3 L632.5 233.3 L634.1 233.3 L635.6 233.3 L637.2 233.3 L638.7 233.3 L640.2 233.3 L641.8 233.3 L643.3 233.3 L644.9 233.3 L646.4 233.3 L647.9 233.3 L649.5 233.3 L651.0 233.3 L652.6 233.3 L654.1 233.3 L655.6 233.3 L657.2 233.3 L658.7 233.3 L660.3 233.3 L661.8 233.3 L663.3 233.3 L664.9 229.6 L666.4 225.9 L668.0 222.3 L669.5 218.7 L671.1 215.1 L672.6 211.6 L674.1 208.0 L675.7 204.6 L677.2 201.0 L678.8 197.7 L680.3 194.2 L681.8 190.9 L683.4 187.5 L684.9 184.2 L686.5 180.9 L688.0 177.6 L689.5 174.3 L691.1 171.1 L692.6 167.9 L694.2 164.7 L695.7 161.6 L697.2 158.4 L698.8 155.4 L700.3 152.3 L701.9 149.2 L703.4 146.2 L704.9 143.2 L706.5 140.2 L708.0 137.2 L709.6 134.3 L711.1 131.3 L712.7 131.4 L714.2 131.3 L715.7 131.4 L717.3 131.3 L718.8 131.4 L720.4 131.3 L721.9 131.4 L723.4 131.3 L725.0 131.4 L726.5 131.4 L728.1 131.3 L729.6 131.4 L731.1 131.3 L732.7 131.4 L734.2 131.3 L735.8 131.4 L737.3 131.3 L738.8 131.4 L740.4 131.3 L741.9 131.4 L743.5 131.4 L745.0 131.3 L746.5 131.4 L748.1 131.3 L749.6 131.4 L751.2 131.3 L752.7 131.4 L754.3 131.3 L755.8 131.4 L757.3 131.3 L758.9 131.4 L760.4 131.3 L762.0 131.4 L763.5 131.4 L765.0 131.3 L766.6 131.4 L768.1 131.3 L769.7 131.4 L771.2 131.3 L772.7 131.4 L774.3 131.3 L775.8 131.4 L777.4 131.3 L778.9 131.4 L780.4 131.4 L782.0 131.4 L783.5 131.4 L785.1 131.3 L786.6 131.4 L788.1 131.3 L789.7 131.4 L791.2 131.3 L792.8 131.4 L794.3 131.3 L795.9 131.4 L797.4 131.3 L798.9 131.4 L800.5 131.4 L802.0 131.3 L803.6 131.4 L805.1 131.3 L806.6 131.4 L808.2 131.3 L809.7 131.4 L811.3 131.3 L812.8 131.4 L814.3 131.3 L815.9 131.4 L817.4 131.4 L819.0 131.4 L820.5 131.4 L822.0 131.3 L823.6 131.4 L825.1 131.3 L826.7 131.4 L828.2 131.3 L829.7 131.4 L831.3 131.3 L832.8 131.4 L834.4 131.3 L835.9 131.4 L837.5 131.4 L839.0 131.3 L840.5 131.4 L842.1 131.3 L843.6 131.4 L845.2 131.3 L846.7 131.4 L848.2 131.3 L849.8 131.4 L851.3 131.3 L852.9 131.4 L854.4 131.3 L855.9 131.4 L857.5 131.4 L859.0 131.3 L860.6 131.4 L862.1 131.3 L863.6 131.4 L865.2 131.3 L866.7 131.4 L868.3 131.3 L869.8 131.4 L871.3 131.3 L872.9 131.4 L874.4 131.4 L876.0 131.3 L877.5 131.4 L879.1 131.3 L880.6 131.4 L882.1 131.3 L883.7 131.4 L885.2 131.3 L886.8 131.4 L888.3 131.3 L889.8 131.4 L891.4 131.3 L892.9 131.4 L894.5 131.4" fill="none" stroke="#f0f6fc" stroke-width="2.5" stroke-linejoin="round"/>
</svg>
